<?xml version="1.0" encoding="UTF-8"?>
<svg id="Layer_2" data-name="Layer 2" xmlns="http://www.w3.org/2000/svg" viewBox="0 0 996.07 311.96">
  <defs>
    <style>
      .cls-1, .cls-2 {
        fill: #fff;
      }

      .cls-3 {
        stroke: #4d4d4d;
      }

      .cls-3, .cls-2, .cls-4, .cls-5 {
        stroke-miterlimit: 10;
      }

      .cls-3, .cls-4 {
        fill: #fbb03b;
      }

      .cls-2 {
        stroke-width: 2px;
      }

      .cls-2, .cls-5 {
        stroke: #f7931e;
      }

      .cls-4 {
        stroke: #333;
      }

      .cls-5 {
        fill: #f7931e;
      }
    </style>
  </defs>
  <g id="Layer_1-2" data-name="Layer 1-2">
    <path class="cls-3" d="M155.5,136.69c-.64,14.25-9.35,26.71-26.14,37.39-12.01,7.6-25.85,13.21-41.41,16.83l20.73-58.99h-43.62L.5,279.2V116.04l125.16.05c10,0,16.94.89,20.83,2.58,6.4,2.88,9.4,8.89,9.01,18.02Z"/>
    <path class="cls-5" d="M700,115.39l-.55,21.07c-.06.05-.03.07-.06.05-5.61-2.15-9.35-6.04-9.35-10.49s3.99-8.59,9.9-10.7c.03-.01.06.02.06.06h0Z"/>
    <path class="cls-5" d="M725.85,124.06l-22.58-9.21s-.05-.1,0-.11c2.35-.53,8.96-.67,10.61-.53,7.81.68,11.84,3.55,14.52,10.78.32.87-1.38-.46-2.54-.93h-.01Z"/>
    <path class="cls-5" d="M719.77,130.89c1.56-.62,8.9-4.31,8.31-3.36-3.54,5.64-9.94,12.03-18.64,12.03-2.62,0-4.97-.36-7.25-.96-.05,0-.1-.41-.05-.43l17.64-7.28h-.01Z"/>
    <path class="cls-2" d="M857.54,185.92c.6,0,1.16.21,1.48.56"/>
    <g>
      <polygon class="cls-3" points=".5 300.5 27.66 300.62 .5 311.23 .5 300.5"/>
      <path class="cls-3" d="M7.05,85.2l-6.55-.26V.79l197.49,93.17c1.21.61-3.85-1.82-24.61-5.8-6.25-1.2-17-3.16-27.98-2.96H7.05Z"/>
      <g>
        <path class="cls-4" d="M310.94,155.53L50.08,285.98l29.69-71.4c30.23-6.06,56.33-14.9,78.29-26.61,32.79-17.33,47.33-45.44,50.15-55.9,2.03-7.52,2.51-16.02,3.14-22.34.25-2.51,2.16-5.8,4.4-4.67l95.18,50.5v-.03Z"/>
        <path class="cls-2" d="M521.71,112.67c0,16.28-14.33,30.25-42.98,41.92-19.12,7.87-41.88,13.83-68.29,17.9-.01,0-.03,0-.03.03l-12.8,28.66s-.02.03-.04.03h-38.25s-.06-.05-.04-.09l38.31-84.54s.02-.03.04-.03h37.94s.06.05.04.09l-17.99,39.5s0,.09.05.09c13.55-2.42,25.57-6.18,36.06-11.29,14.64-7.21,22.24-15.59,22.81-25.17.35-6.16-2.28-10.2-7.88-12.13-3.36-1.16-9.42-1.73-18.18-1.73h-107.3s-.06-.06-.03-.1l16.3-20.68s.02-.02.03-.02h108.23c15.83,0,27.92,1.54,36.26,4.62,11.84,4.35,17.76,11.99,17.76,22.94h-.02Z"/>
        <path class="cls-2" d="M995.03,185.72h-43.24s-.04-.09-.04-.09l19.26-42.73s-.04-.09-.04-.09h-37.83s-.04.03-.04.03l-19.31,42.85s-.04.03-.04.03h-21.23s-.04-.09-.04-.09l19.57-42.73s-.04-.09-.04-.09h-38.04s-.04.03-.04.03l-20.42,45.16-79.79-.7,13.18-24.06c2.17-4.51,5.18-8.5,9.04-11.96,4.2-3.8,8.12-5.7,11.77-5.7h.02c1.03,0,1.8.7,1.59,1.4-.44,1.47-.66,2.93-.66,4.37,0,5.51,2.7,10.19,8.09,14.03,5.39,3.85,11.87,5.78,19.44,5.78s14.19-1.95,19.86-5.82c5.68-3.88,8.52-8.54,8.52-13.99,0-13.47-13.14-20.21-39.41-20.21-19.9,0-35.83,2.59-47.82,7.76-13.94,6.09-24.36,16.39-31.3,30.89,0,.04-.04.11-.04.11l-5.86,16.57h-3.27s-28.91-.36-28.91-.36c-.04,0-.04-.09-.04-.09l19.36-42.73s-.04-.09-.04-.09h-38.04s-.04.03-.04.03l-.76,1.86-2.94,7.18-14.23,34.8-28.29.93s-.04-.09-.04-.09l13.09-29.59s.04-.03.04-.03h6.91c13.27,0,19.74-4.46,24.1-13.2h-24.65s-.04-.09-.04-.09l14.74-32.91s-.04-.09-.04-.09h-20.39s-.02.01-.03.01c-7.63,11.39-14.81,19.25-21.53,23.59-5.95,3.84-15.05,7.01-27.3,9.48-.01.01-.03.03-.03.03l-6.56,13.09s.04.09.04.09h17.07s.04.09.04.09l-12.28,27.33h-28.08s-.04-.09-.04-.09l19.68-42.73s-.04-.09-.04-.09h-59.93c-14.99,0-27.57,3.03-37.73,9.08-11.21,6.66-16.82,15.73-16.82,27.23,0,6.38,2.56,11.55,7.67,15.51,5.11,3.96,11.77,5.94,19.97,5.94,11.11,0,20.47-3.4,28.1-10.18.02-.02.06.01.06.05.06,5.65,5.74,8.48,17.02,8.48l62.39.73,113.49-.76-27.55,62.16c-.35.77.48,1.55,1.64,1.55h34.54c.75,0,1.42-.34,1.64-.84l27.64-62.19c.22-.5.88-.84,1.63-.84l99.28.16,7.82.05c0,.06,0,.05.03.11-3.85,2.19-6.95,5.32-9.33,9.38-2.42,4.13-3.63,8.39-3.63,12.79,0,5.55,2.06,10.09,6.2,13.61,4.76,4.01,11.52,6.02,20.28,6.02,13.94,0,25.61-4.35,35-13.04,6.72-6.26,13.13-15.88,19.22-28.85.01-.02.04-.03.04-.03h25.62c11.31,0,19.03-4.37,23.18-13.11.02-.04-.04-.09-.04-.09ZM540.41,185.68s-.02.03-.04.03c-11.9,0-17.84-2.4-17.84-7.18,0-.99.21-2.09.63-3.3l7.34-19.19s.04-.03.04-.03h23.12s.04.08.04.08l-13.29,29.59ZM907.11,201.25l-12.65,27.01s-.04.03-.06.02c-4.04-2.2-6.06-5.11-6.06-8.73,0-4.07,1.98-8.15,5.94-12.25,3.93-4.08,8.2-6.13,12.79-6.15.04,0,.04.09.04.09h0ZM687.04,145.09h1.36s-1.34-.04-1.36,0Z"/>
      </g>
    </g>
    <path class="cls-1" d="M734.4,198.6c-.24-.39-.92-1.19-1.34-1.39.14.04.24.1.38.18-.17.08-.33.29-.46.36,1.73.53,4.25.28,6.01-.09l-4.59.94Z"/>
    <path class="cls-2" d="M642.94,188l27.88.08,14.65-35.81"/>
  </g>
</svg>